<svg width="24" height="24" viewBox="0 0 24 24" fill="none" xmlns="http://www.w3.org/2000/svg">
<mask id="mask0_129_1001" style="mask-type:alpha" maskUnits="userSpaceOnUse" x="0" y="0" width="24" height="24">
<rect width="24" height="24" rx="12" fill="#D9D9D9"/>
</mask>
<g mask="url(#mask0_129_1001)">
<path d="M19.95 21C17.8667 21 15.8083 20.5458 13.775 19.6375C11.7417 18.7292 9.89167 17.4417 8.225 15.775C6.55833 14.1083 5.27083 12.2583 4.3625 10.225C3.45417 8.19167 3 6.13333 3 4.05C3 3.75 3.1 3.5 3.3 3.3C3.5 3.1 3.75 3 4.05 3H8.1C8.33333 3 8.54167 3.07917 8.725 3.2375C8.90833 3.39583 9.01667 3.58333 9.05 3.8L9.7 7.3C9.73333 7.56667 9.725 7.79167 9.675 7.975C9.625 8.15833 9.53333 8.31667 9.4 8.45L8.48663 9.37278C7.58878 10.2799 7.36695 11.6894 8.1625 12.6875C8.62083 13.2625 9.125 13.8167 9.675 14.35C10.1917 14.8667 10.7333 15.3458 11.3 15.7875C12.3102 16.5749 13.7302 16.3698 14.6358 15.4642L15.45 14.65C15.6 14.5 15.7958 14.3875 16.0375 14.3125C16.2792 14.2375 16.5167 14.2167 16.75 14.25L20.2 14.95C20.4333 15.0167 20.625 15.1375 20.775 15.3125C20.925 15.4875 21 15.6833 21 15.9V19.95C21 20.25 20.9 20.5 20.7 20.7C20.5 20.9 20.25 21 19.95 21ZM5.46062 7.3771C5.66961 8.17645 6.65697 8.36803 7.2412 7.7838C7.51292 7.51208 7.63421 7.12444 7.56582 6.7463L7.41836 5.93093C7.32089 5.39197 6.85167 5 6.30397 5C5.62415 5 5.09501 5.59555 5.21892 6.26397C5.26617 6.51884 5.31819 6.77252 5.375 7.025C5.40147 7.14263 5.43001 7.25999 5.46062 7.3771ZM16.2015 16.7235C15.6123 17.3127 15.8051 18.3077 16.6076 18.5317C16.7255 18.5646 16.8438 18.5957 16.9625 18.625C17.2279 18.6905 17.4939 18.747 17.7606 18.7945C18.425 18.9129 19 18.3752 19 17.7003C19 17.1475 18.6104 16.6713 18.0685 16.5617L17.2717 16.4007C16.8834 16.3222 16.4816 16.4434 16.2015 16.7235Z" fill="black" fill-opacity="0.6"/>
</g>
</svg>
