<svg width="334" height="264" viewBox="0 0 334 264" fill="none" xmlns="http://www.w3.org/2000/svg">
<path d="M112.083 168.89C115.621 169.898 119.358 169.983 122.938 169.138C126.519 168.292 129.823 166.543 132.536 164.059C138.049 159.055 145.629 156.876 152.731 157.241C165.39 157.847 176.733 164.595 187.276 169.427C192.172 171.681 197.234 173.856 202.79 174.908C216.211 177.468 228.429 170.844 238.328 161.278C258.728 141.582 264.123 109.12 257.949 86.6589C253.902 71.9499 233.196 42.9774 206.269 45.8333C180.721 48.5496 196.107 85.5853 171.944 89.1874C145.248 93.1706 144.303 51.4646 111.594 57.1335C82.0688 62.2548 67.3652 88.4627 76.5878 109.957C81.0918 120.452 89.7132 128.714 94.3031 139.101C99.2312 150.251 97.0463 164.365 112.083 168.89Z" fill="#5F68FF"/>
<path opacity="0.8" d="M112.083 168.89C115.621 169.898 119.358 169.983 122.938 169.138C126.519 168.292 129.823 166.543 132.536 164.059C138.049 159.055 145.629 156.876 152.731 157.241C165.39 157.847 176.733 164.595 187.276 169.427C192.172 171.681 197.234 173.856 202.79 174.908C216.211 177.468 228.429 170.844 238.328 161.278C258.728 141.582 264.123 109.12 257.949 86.6589C253.902 71.9499 233.196 42.9774 206.269 45.8333C180.721 48.5496 196.107 85.5853 171.944 89.1874C145.248 93.1706 144.303 51.4646 111.594 57.1335C82.0688 62.2548 67.3652 88.4627 76.5878 109.957C81.0918 120.452 89.7132 128.714 94.3031 139.101C99.2312 150.251 97.0463 164.365 112.083 168.89Z" fill="white"/>
<path d="M167 232.001C224.484 232.001 271.085 229.281 271.085 225.925C271.085 222.568 224.484 219.848 167 219.848C109.515 219.848 62.9146 222.568 62.9146 225.925C62.9146 229.281 109.515 232.001 167 232.001Z" fill="#F5F5F5"/>
<path d="M228.816 89.4412C229.567 91.9589 233.443 96.6723 233.749 100.103C234.055 103.533 227.447 109.019 227.447 109.019C227.447 109.019 222.508 92.5065 225.6 90.5793C228.692 88.6521 228.816 89.4412 228.816 89.4412Z" fill="#263238"/>
<path d="M215.245 107.281C214.074 108.258 212.926 109.08 211.729 109.923C210.531 110.765 209.297 111.533 208.041 112.252C206.78 112.998 205.481 113.678 204.149 114.287C203.472 114.593 202.801 114.894 202.103 115.157C201.76 115.296 201.411 115.43 201.056 115.549L199.983 115.924C199.065 116.181 198.104 116.25 197.159 116.128C196.369 116.036 195.586 115.885 194.818 115.677C193.387 115.281 191.986 114.783 190.626 114.185C187.986 113.032 185.439 111.677 183.008 110.132L184.012 108.264C185.279 108.801 186.578 109.338 187.867 109.805C189.155 110.272 190.454 110.765 191.753 111.168C193.02 111.583 194.311 111.92 195.618 112.177C196.219 112.295 196.827 112.368 197.438 112.397C197.894 112.433 198.352 112.385 198.791 112.258C200.016 111.789 201.213 111.252 202.377 110.647C202.973 110.336 203.563 110.019 204.143 109.676C204.723 109.332 205.313 108.999 205.888 108.645C207.042 107.931 208.169 107.174 209.286 106.396C210.403 105.617 211.514 104.785 212.507 103.996L215.245 107.281Z" fill="#E58A7B"/>
<path d="M218.079 101.562C216.748 100.52 211.24 103.929 209.57 105.352L210.789 112.722C210.789 112.722 218.707 109.405 219.18 107.139C219.679 104.772 219.072 102.356 218.079 101.562Z" fill="#5F68FF"/>
<path opacity="0.2" d="M218.079 101.562C216.748 100.52 211.24 103.929 209.57 105.352L210.789 112.722C210.789 112.722 218.707 109.405 219.18 107.139C219.679 104.772 219.072 102.356 218.079 101.562Z" fill="black"/>
<path d="M236.605 123.868L219.888 127.126C211.251 103.737 213.13 102.969 213.13 102.969C214.345 102.301 215.6 101.71 216.887 101.197L217.113 101.112C218.187 100.72 218.401 100.661 219.829 100.242C222.288 99.6568 224.58 99.1683 227.42 98.7657L227.957 98.6905C228.494 98.6261 228.982 98.5724 229.476 98.5241C229.809 98.4865 230.142 98.465 230.458 98.4436L231.532 98.3845C233.368 98.2933 234.683 98.3201 234.683 98.3201C234.173 112.927 235 117.12 236.605 123.868Z" fill="#5F68FF"/>
<path opacity="0.2" d="M236.605 123.868L219.888 127.126C211.251 103.737 213.13 102.969 213.13 102.969C214.345 102.301 215.6 101.71 216.887 101.197L217.113 101.112C218.187 100.72 218.401 100.661 219.829 100.242C222.288 99.6568 224.58 99.1683 227.42 98.7657L227.957 98.6905C228.494 98.6261 228.982 98.5724 229.476 98.5241C229.809 98.4865 230.142 98.465 230.458 98.4436L231.532 98.3845C233.368 98.2933 234.683 98.3201 234.683 98.3201C234.173 112.927 235 117.12 236.605 123.868Z" fill="black"/>
<path d="M223.512 91.1227C222.438 92.8996 226.33 93.7209 228.633 91.9011C230.475 90.4409 230.04 87.0697 228.462 86.2859C226.883 85.5021 223.512 91.1227 223.512 91.1227Z" fill="#5F68FF"/>
<path opacity="0.4" d="M223.512 91.1227C222.438 92.8996 226.33 93.7209 228.633 91.9011C230.475 90.4409 230.04 87.0697 228.462 86.2859C226.883 85.5021 223.512 91.1227 223.512 91.1227Z" fill="black"/>
<path d="M239.783 220.68L235.601 220.991L234.071 211.366L238.253 211.055L239.783 220.68Z" fill="#E58A7B"/>
<path d="M269.362 207.226L265.814 209.459L259.495 201.965L263.044 199.727L269.362 207.226Z" fill="#E58A7B"/>
<path d="M234.071 211.365L234.919 216.711L239.042 216.019L238.259 211.059L234.071 211.365Z" fill="#CF6F64"/>
<path d="M263.049 199.734L259.495 201.968L262.115 205.07L265.744 202.928L263.049 199.734Z" fill="#CF6F64"/>
<path d="M220.146 127.126C220.146 127.126 220.087 160.312 222.798 172.81C225.622 185.812 233.926 215.391 233.926 215.391L239.95 214.612C239.95 214.612 235.242 184.733 233.234 171.811C231.049 157.73 232.391 124.742 232.391 124.742L220.146 127.126Z" fill="#5F68FF"/>
<path opacity="0.7" d="M220.146 127.126C220.146 127.126 220.087 160.312 222.798 172.81C225.622 185.812 233.926 215.391 233.926 215.391L239.95 214.612C239.95 214.612 235.242 184.733 233.234 171.811C231.049 157.73 232.391 124.742 232.391 124.742L220.146 127.126Z" fill="black"/>
<path opacity="0.5" d="M232.015 139.454L229.062 136.512C229.175 149.261 229.889 155.558 232.343 162.419C231.956 155.166 231.924 146.588 232.015 139.454Z" fill="black"/>
<path d="M224.301 126.267C224.301 126.267 233.303 153.693 237.77 169.492C242.483 186.16 260.553 204.595 260.553 204.595L265.738 201.6C265.738 201.6 253.391 184.099 248.85 168.547C239.616 136.976 243.412 130.288 236.599 123.867L224.301 126.267Z" fill="#5F68FF"/>
<path opacity="0.7" d="M224.301 126.267C224.301 126.267 233.303 153.693 237.77 169.492C242.483 186.16 260.553 204.595 260.553 204.595L265.738 201.6C265.738 201.6 253.391 184.099 248.85 168.547C239.616 136.976 243.412 130.288 236.599 123.867L224.301 126.267Z" fill="black"/>
<path d="M217.226 81.4375C219.62 82.2374 221.794 88.18 221.885 90.5206C221.976 92.8612 214.949 96.0875 214.949 96.0875C214.949 96.0875 211.852 88.5719 212.716 83.7405C213.092 81.6415 217.226 81.4375 217.226 81.4375Z" fill="#263238"/>
<path d="M184.367 108.463L181.527 105.371L180.598 109.247C180.598 109.247 182.617 111.029 184.249 110.417L184.367 108.463Z" fill="#E58A7B"/>
<path d="M178.649 104.484L176.663 106.063L180.598 109.246L181.527 105.37L178.649 104.484Z" fill="#E58A7B"/>
<path d="M264.702 208.662L268.02 205.317C268.077 205.26 268.153 205.226 268.234 205.22C268.315 205.214 268.395 205.237 268.46 205.285L271.483 207.529C271.557 207.588 271.619 207.662 271.663 207.746C271.707 207.83 271.733 207.923 271.738 208.018C271.744 208.113 271.729 208.208 271.695 208.297C271.661 208.385 271.609 208.466 271.542 208.533C270.361 209.676 269.738 210.17 268.278 211.641C267.381 212.549 266.163 213.96 264.923 215.211C263.683 216.462 262.378 215.297 262.775 214.674C264.584 211.845 264.262 210.788 264.386 209.349C264.404 209.089 264.517 208.845 264.702 208.662Z" fill="#263238"/>
<path d="M235.322 220.391H240.036C240.118 220.39 240.199 220.419 240.262 220.472C240.326 220.525 240.369 220.599 240.384 220.681L241.125 224.406C241.142 224.498 241.138 224.592 241.114 224.682C241.09 224.772 241.047 224.856 240.987 224.927C240.927 224.998 240.852 225.055 240.767 225.094C240.682 225.133 240.59 225.153 240.497 225.152C238.849 225.125 238.055 225.029 235.983 225.029C234.71 225.029 232.08 225.158 230.319 225.158C228.558 225.158 228.37 223.418 229.095 223.263C232.316 222.554 233.578 221.582 234.635 220.648C234.827 220.484 235.07 220.393 235.322 220.391Z" fill="#263238"/>
<g style="mix-blend-mode:multiply" opacity="0.27">
<path d="M235.226 106.785L232.649 108.32L235.623 119.503C234.973 116.115 235.263 112.395 235.226 106.785Z" fill="#5F68FF"/>
</g>
<path d="M220.581 89.3276C222.412 90.8575 225.069 93.0854 228.199 90.4818C230.883 88.2378 232.762 82.3488 227.946 82.1341C225.429 82.0214 220.581 89.3276 220.581 89.3276Z" fill="#263238"/>
<path d="M225.004 90.375C225.004 92.9088 225.396 97.4772 227.42 98.7763C227.42 98.7763 227.237 101.385 222.696 102.266C217.709 103.237 219.829 100.253 219.829 100.253C222.427 99.0716 221.977 97.0639 221.118 95.2601L225.004 90.375Z" fill="#E58A7B"/>
<path d="M223.421 92.3672L221.123 95.2607C221.324 95.6789 221.49 96.1135 221.617 96.5598C222.626 96.2055 223.834 94.7883 223.732 93.677C223.71 93.225 223.604 92.7808 223.421 92.3672Z" fill="#CF6F64"/>
<path d="M225.246 84.5559C225.783 88.6841 226.11 90.418 224.457 92.9143C221.971 96.6721 216.786 96.4305 215.019 92.5492C213.409 89.0545 212.808 82.8864 216.48 80.4975C217.287 79.963 218.218 79.644 219.183 79.5709C220.149 79.4978 221.117 79.6729 221.996 80.0797C222.874 80.4865 223.634 81.1114 224.203 81.8949C224.772 82.6784 225.131 83.5944 225.246 84.5559Z" fill="#E58A7B"/>
<path d="M218.074 77.3259C215.282 79.3068 220.881 79.8919 220.887 82.7639C220.887 83.9503 222.835 87.7135 225.606 87.4987L228.29 82.7317C231.113 78.1687 224.441 72.8004 218.074 77.3259Z" fill="#263238"/>
<path d="M218.074 77.3246C213.162 77.0669 211.02 80.975 211.584 84.4859C215.01 83.6315 218.555 83.3503 222.073 83.6538C228.805 84.3409 218.074 77.3246 218.074 77.3246Z" fill="#263238"/>
<path d="M226.588 88.1171C226.656 88.9184 226.403 89.7139 225.885 90.3288C225.192 91.1394 224.274 90.6616 223.952 89.7007C223.678 88.831 223.71 87.3655 224.644 86.9038C224.851 86.8084 225.078 86.7658 225.305 86.78C225.531 86.7942 225.751 86.8647 225.944 86.9851C226.137 87.1055 226.297 87.272 226.409 87.4696C226.522 87.6673 226.583 87.8898 226.588 88.1171Z" fill="#E58A7B"/>
<path d="M219.282 86.9024C219.346 87.2353 219.223 87.5359 219.008 87.5788C218.793 87.6218 218.562 87.3856 218.498 87.042C218.434 86.6984 218.557 86.4032 218.772 86.3602C218.987 86.3173 219.217 86.5696 219.282 86.9024Z" fill="#263238"/>
<path d="M215.529 87.6329C215.594 87.9658 215.47 88.2718 215.256 88.3147C215.041 88.3576 214.81 88.1214 214.746 87.7779C214.681 87.4343 214.805 87.1391 215.019 87.1015C215.234 87.0639 215.465 87.2947 215.529 87.6329Z" fill="#263238"/>
<path d="M215.121 87.1049L214.278 87.0352C214.278 87.0352 214.81 87.5773 215.121 87.1049Z" fill="#263238"/>
<path d="M216.635 88.0156C216.485 88.8289 216.224 89.618 215.862 90.3616C216.055 90.4513 216.265 90.4978 216.477 90.4978C216.689 90.4978 216.899 90.4513 217.092 90.3616L216.635 88.0156Z" fill="#DF5753"/>
<path d="M218.493 91.4343C218.47 91.4346 218.447 91.4267 218.429 91.4119C218.412 91.3971 218.4 91.3765 218.396 91.3538C218.394 91.341 218.394 91.328 218.397 91.3154C218.4 91.3028 218.405 91.2909 218.413 91.2804C218.42 91.2699 218.43 91.261 218.441 91.2542C218.452 91.2474 218.464 91.243 218.477 91.241C218.892 91.1688 219.284 91 219.621 90.7482C219.959 90.4964 220.232 90.1687 220.42 89.7916C220.425 89.7796 220.432 89.7687 220.441 89.7595C220.45 89.7503 220.461 89.743 220.473 89.7381C220.485 89.7331 220.498 89.7305 220.511 89.7305C220.524 89.7304 220.537 89.733 220.549 89.7379C220.561 89.7428 220.572 89.7501 220.581 89.7592C220.59 89.7684 220.597 89.7792 220.602 89.7912C220.607 89.8032 220.61 89.816 220.61 89.829C220.61 89.8419 220.607 89.8548 220.602 89.8667C220.406 90.2766 220.113 90.633 219.75 90.9058C219.386 91.1787 218.963 91.36 218.514 91.4343H218.493Z" fill="#263238"/>
<path d="M220.146 85.476C220.097 85.4766 220.049 85.4594 220.012 85.4277C219.831 85.256 219.613 85.1296 219.374 85.0587C219.135 84.9877 218.883 84.9744 218.638 85.0197C218.584 85.0332 218.526 85.0247 218.479 84.996C218.431 84.9673 218.396 84.9208 218.383 84.8667C218.369 84.8126 218.378 84.7553 218.406 84.7075C218.435 84.6597 218.482 84.6252 218.536 84.6117C218.845 84.5508 219.165 84.5643 219.468 84.6511C219.772 84.7379 220.05 84.8955 220.28 85.1109C220.317 85.1481 220.338 85.1983 220.338 85.2505C220.338 85.3028 220.317 85.3529 220.28 85.3901C220.265 85.4131 220.246 85.4327 220.223 85.4475C220.199 85.4623 220.173 85.472 220.146 85.476Z" fill="#263238"/>
<path d="M213.452 86.2221C213.427 86.2276 213.401 86.2276 213.377 86.2221C213.352 86.2121 213.33 86.1973 213.311 86.1786C213.292 86.1599 213.278 86.1377 213.268 86.1132C213.258 86.0887 213.253 86.0624 213.253 86.0359C213.253 86.0095 213.259 85.9833 213.269 85.959C213.384 85.6655 213.566 85.4035 213.803 85.1952C214.039 84.9869 214.322 84.8383 214.628 84.7619C214.653 84.7565 214.68 84.7564 214.706 84.7617C214.732 84.767 214.756 84.7775 214.778 84.7926C214.799 84.8077 214.818 84.827 214.832 84.8494C214.845 84.8719 214.855 84.8969 214.858 84.923C214.864 84.9484 214.864 84.9746 214.859 85.0002C214.854 85.0257 214.844 85.0499 214.83 85.0715C214.815 85.093 214.796 85.1114 214.775 85.1256C214.753 85.1397 214.728 85.1493 214.703 85.1538C214.461 85.2196 214.239 85.3407 214.052 85.5075C213.866 85.6743 213.721 85.8822 213.629 86.1147C213.612 86.1468 213.586 86.1737 213.555 86.1926C213.524 86.2114 213.488 86.2216 213.452 86.2221Z" fill="#263238"/>
<path d="M263.457 210.609C263.365 210.606 263.275 210.582 263.194 210.537C263.114 210.492 263.046 210.428 262.995 210.351C262.957 210.306 262.932 210.251 262.921 210.193C262.911 210.134 262.916 210.074 262.936 210.018C263.124 209.514 264.606 209.191 264.772 209.154C264.792 209.15 264.811 209.153 264.83 209.16C264.848 209.168 264.863 209.181 264.874 209.197C264.886 209.212 264.892 209.231 264.892 209.251C264.892 209.27 264.886 209.289 264.874 209.304C264.584 209.782 264.015 210.582 263.484 210.609H263.457ZM264.579 209.401C263.994 209.551 263.221 209.82 263.124 210.088C263.115 210.113 263.113 210.14 263.118 210.165C263.124 210.191 263.137 210.215 263.156 210.233C263.19 210.288 263.237 210.334 263.293 210.365C263.35 210.396 263.414 210.412 263.478 210.41C263.763 210.394 264.166 210.024 264.579 209.401Z" fill="#5F68FF"/>
<path d="M264.337 209.403C263.801 209.403 263.13 209.269 262.931 208.979C262.887 208.913 262.867 208.834 262.873 208.755C262.88 208.676 262.914 208.601 262.969 208.544C263.016 208.484 263.075 208.435 263.143 208.4C263.21 208.364 263.284 208.344 263.36 208.34H263.403C264.005 208.34 264.831 209.15 264.864 209.183C264.876 209.195 264.886 209.21 264.89 209.227C264.895 209.244 264.895 209.262 264.89 209.279C264.886 209.296 264.877 209.311 264.864 209.323C264.852 209.335 264.837 209.344 264.821 209.349C264.662 209.387 264.5 209.405 264.337 209.403ZM263.403 208.538H263.371C263.323 208.54 263.276 208.553 263.233 208.575C263.19 208.597 263.153 208.629 263.124 208.667C263.049 208.769 263.071 208.828 263.097 208.866C263.258 209.113 264.08 209.252 264.584 209.193C264.262 208.865 263.852 208.638 263.403 208.538Z" fill="#5F68FF"/>
<path d="M233.781 221.126C233.42 221.158 233.059 221.067 232.756 220.868C232.684 220.812 232.628 220.739 232.592 220.656C232.557 220.572 232.543 220.481 232.552 220.39C232.552 220.336 232.565 220.283 232.592 220.236C232.618 220.189 232.656 220.15 232.702 220.122C233.196 219.832 234.925 220.691 235.118 220.788C235.136 220.797 235.151 220.812 235.161 220.83C235.17 220.849 235.174 220.869 235.172 220.89C235.169 220.91 235.161 220.929 235.147 220.944C235.134 220.959 235.116 220.97 235.097 220.976C234.664 221.066 234.224 221.116 233.781 221.126ZM232.987 220.256C232.924 220.252 232.861 220.265 232.804 220.294C232.786 220.303 232.771 220.318 232.762 220.336C232.752 220.355 232.748 220.375 232.751 220.396C232.745 220.456 232.755 220.517 232.778 220.573C232.802 220.629 232.838 220.679 232.885 220.718C233.153 220.949 233.846 220.986 234.758 220.836C234.204 220.545 233.606 220.349 232.987 220.256Z" fill="#5F68FF"/>
<path d="M235.075 220.966H235.038C234.501 220.735 233.465 219.823 233.54 219.356C233.54 219.248 233.637 219.109 233.905 219.082H233.986C234.92 219.082 235.161 220.789 235.172 220.864C235.174 220.882 235.172 220.901 235.166 220.917C235.159 220.934 235.148 220.949 235.134 220.961C235.116 220.968 235.095 220.97 235.075 220.966ZM234.002 219.27H233.943C233.771 219.27 233.76 219.35 233.76 219.372C233.717 219.656 234.426 220.37 234.963 220.687C234.855 220.268 234.581 219.281 233.98 219.281L234.002 219.27Z" fill="#5F68FF"/>
<path d="M218.874 86.3759L218.031 86.3008C218.031 86.3008 218.562 86.8483 218.874 86.3759Z" fill="#263238"/>
<path d="M222.561 105.836C213.58 107.839 216.356 102.406 216.893 101.209L217.118 101.123C218.192 100.731 218.406 100.672 219.834 100.253C222.326 99.5808 224.863 99.0874 227.425 98.7771L227.962 98.702C228.499 98.6322 228.987 98.5785 229.481 98.5356C229.814 98.498 230.147 98.4765 230.464 98.455L231.537 98.3906C231.72 99.2281 232.165 103.705 222.561 105.836Z" fill="#E58A7B"/>
<path d="M236.659 122.836L237.706 124.189C237.786 124.291 237.673 124.436 237.48 124.473L219.947 127.888C219.797 127.92 219.657 127.888 219.631 127.775L219.185 126.309C219.185 126.207 219.271 126.095 219.432 126.063L236.364 122.766C236.415 122.751 236.469 122.75 236.52 122.762C236.572 122.774 236.62 122.8 236.659 122.836Z" fill="#26395A"/>
<path d="M234.753 125.171L235.21 125.086C235.301 125.086 235.36 125.01 235.344 124.951L234.753 123.051C234.753 122.992 234.646 122.965 234.555 122.981L234.104 123.067C234.012 123.067 233.953 123.148 233.969 123.201L234.56 125.107C234.576 125.161 234.667 125.193 234.753 125.171Z" fill="#5F68FF"/>
<path d="M224.483 131.506L220.989 130.207L221.526 133.53C221.526 133.53 224.059 134.443 225.353 133.272L224.483 131.506Z" fill="#E58A7B"/>
<path d="M217.661 131.087L216.829 133.267L221.526 133.53L220.989 130.207L217.661 131.087Z" fill="#E58A7B"/>
<path d="M221.252 127.804L221.708 127.718C221.794 127.718 221.859 127.643 221.837 127.584L221.247 125.684C221.247 125.625 221.145 125.598 221.053 125.614L220.597 125.7C220.506 125.7 220.447 125.78 220.468 125.834L221.059 127.74C221.075 127.793 221.161 127.826 221.252 127.804Z" fill="#5F68FF"/>
<path d="M228.005 126.484L228.456 126.398C228.547 126.398 228.606 126.323 228.59 126.264L228 124.363C228 124.304 227.892 124.278 227.801 124.294L227.35 124.38C227.259 124.38 227.2 124.46 227.216 124.514L227.807 126.42C227.828 126.451 227.859 126.474 227.895 126.485C227.931 126.497 227.97 126.496 228.005 126.484Z" fill="#5F68FF"/>
<path d="M226.094 96.6476C226.475 96.5027 226.953 97.8448 226.835 98.0166C226.561 98.4084 221.547 99.7773 221.322 99.0097C221.308 98.5936 221.371 98.1785 221.51 97.7857C221.655 97.528 222.766 98.0004 226.094 96.6476Z" fill="#5F68FF"/>
<path d="M225.246 96.6777C225.439 96.2322 225.992 95.5182 226.475 95.9262C226.959 96.3342 227.163 97.2145 226.846 97.3595C226.529 97.5044 224.913 97.4239 225.246 96.6777Z" fill="#5F68FF"/>
<path d="M226.271 96.9082C226.604 96.5539 227.345 96.0654 227.683 96.6129C228.021 97.1605 227.898 98.057 227.554 98.0838C227.211 98.1107 225.707 97.4933 226.271 96.9082Z" fill="#5F68FF"/>
<path d="M226.454 96.8273C226.427 96.5419 226.483 96.2547 226.615 96.0004C226.748 95.7461 226.951 95.5355 227.2 95.394C227.812 94.9967 228.408 94.739 228.644 94.3203C228.746 94.7129 228.766 95.1222 228.703 95.5228C228.58 96.0972 226.674 96.5374 226.803 97.0367L226.454 96.8273Z" fill="#5F68FF"/>
<path d="M226.373 96.801C226.195 96.5757 226.086 96.3038 226.06 96.018C226.033 95.7322 226.09 95.4448 226.223 95.1905C226.513 94.5249 226.878 93.988 226.856 93.5156C227.154 93.7903 227.394 94.1227 227.559 94.4927C227.763 95.0295 226.405 96.4413 226.786 96.7956L226.373 96.801Z" fill="#5F68FF"/>
<path d="M263.709 201.672C263.698 201.671 263.688 201.668 263.678 201.662C263.669 201.657 263.661 201.649 263.656 201.639C263.532 201.468 251.26 183.956 246.762 168.571C243.826 158.702 241.569 148.643 240.008 138.466C239.08 132.732 238.516 129.27 236.669 126.43C236.657 126.417 236.65 126.4 236.65 126.382C236.65 126.364 236.657 126.346 236.669 126.333C236.682 126.322 236.698 126.316 236.715 126.316C236.732 126.316 236.748 126.322 236.761 126.333C238.629 129.2 239.192 132.673 240.121 138.423C241.689 148.586 243.949 158.63 246.885 168.485C251.378 183.849 263.639 201.339 263.763 201.516C263.773 201.529 263.778 201.545 263.778 201.562C263.778 201.578 263.773 201.594 263.763 201.607C263.762 201.622 263.757 201.637 263.747 201.648C263.737 201.66 263.724 201.668 263.709 201.672Z" fill="#5F68FF"/>
<path opacity="0.4" d="M263.709 201.672C263.698 201.671 263.688 201.668 263.678 201.662C263.669 201.657 263.661 201.649 263.656 201.639C263.532 201.468 251.26 183.956 246.762 168.571C243.826 158.702 241.569 148.643 240.008 138.466C239.08 132.732 238.516 129.27 236.669 126.43C236.657 126.417 236.65 126.4 236.65 126.382C236.65 126.364 236.657 126.346 236.669 126.333C236.682 126.322 236.698 126.316 236.715 126.316C236.732 126.316 236.748 126.322 236.761 126.333C238.629 129.2 239.192 132.673 240.121 138.423C241.689 148.586 243.949 158.63 246.885 168.485C251.378 183.849 263.639 201.339 263.763 201.516C263.773 201.529 263.778 201.545 263.778 201.562C263.778 201.578 263.773 201.594 263.763 201.607C263.762 201.622 263.757 201.637 263.747 201.648C263.737 201.66 263.724 201.668 263.709 201.672Z" fill="black"/>
<path d="M241.029 214.592L232.826 215.655L232.289 213.368L240.83 211.559L241.029 214.592Z" fill="#5F68FF"/>
<path d="M266.173 201.419L260.123 204.913L258.083 203.169L264.703 198.692L266.173 201.419Z" fill="#5F68FF"/>
<path d="M237.781 104.008C238.07 105.5 238.237 106.907 238.398 108.361C238.559 109.816 238.618 111.255 238.661 112.71C238.704 114.176 238.672 115.643 238.564 117.106C238.505 117.842 238.441 118.577 238.339 119.318C238.296 119.683 238.248 120.054 238.178 120.424L237.979 121.562C237.759 122.49 237.356 123.364 236.793 124.133C236.331 124.781 235.821 125.393 235.268 125.964C234.232 127.028 233.12 128.015 231.94 128.917C229.657 130.674 227.241 132.252 224.714 133.635L223.565 131.853C224.639 130.999 225.713 130.119 226.786 129.223C227.86 128.326 228.88 127.419 229.862 126.474C230.833 125.565 231.749 124.598 232.606 123.58C232.999 123.11 233.358 122.611 233.679 122.088C233.933 121.707 234.115 121.283 234.216 120.837C234.391 119.534 234.493 118.222 234.522 116.908C234.522 116.237 234.522 115.566 234.522 114.895C234.522 114.224 234.495 113.542 234.463 112.865C234.399 111.513 234.275 110.181 234.13 108.807C233.985 107.433 233.797 106.075 233.593 104.802L237.781 104.008Z" fill="#E58A7B"/>
<path d="M237.131 99.4438C239.423 101.301 238.876 106.82 238.876 106.82L231.146 109.364C231.146 109.364 231.5 103.003 231.886 100.716C232.337 97.9943 234.871 97.6132 237.131 99.4438Z" fill="#5F68FF"/>
<path opacity="0.2" d="M237.131 99.4438C239.423 101.301 238.876 106.82 238.876 106.82L231.146 109.364C231.146 109.364 231.5 103.003 231.886 100.716C232.337 97.9943 234.871 97.6132 237.131 99.4438Z" fill="black"/>
<path d="M135.011 122.474C134.711 121.172 133.978 120.011 132.933 119.179C131.888 118.347 130.592 117.894 129.256 117.895H86.3099C84.7437 117.895 83.2418 118.517 82.1343 119.624C81.0269 120.732 80.4048 122.233 80.4048 123.8V219.258C80.4048 220.824 81.0269 222.326 82.1343 223.434C83.2418 224.541 84.7437 225.163 86.3099 225.163H222.664C224.23 225.163 225.732 224.541 226.839 223.434C227.947 222.326 228.569 220.824 228.569 219.258V139.072C228.569 137.506 227.947 136.004 226.839 134.897C225.732 133.789 224.23 133.167 222.664 133.167H148.448C145.328 133.168 142.301 132.111 139.861 130.168C137.42 128.226 135.71 125.513 135.011 122.474Z" fill="#5F68FF"/>
<path opacity="0.6" d="M135.011 122.474C134.711 121.172 133.978 120.011 132.933 119.179C131.888 118.347 130.592 117.894 129.256 117.895H86.3099C84.7437 117.895 83.2418 118.517 82.1343 119.624C81.0269 120.732 80.4048 122.233 80.4048 123.8V219.258C80.4048 220.824 81.0269 222.326 82.1343 223.434C83.2418 224.541 84.7437 225.163 86.3099 225.163H222.664C224.23 225.163 225.732 224.541 226.839 223.434C227.947 222.326 228.569 220.824 228.569 219.258V139.072C228.569 137.506 227.947 136.004 226.839 134.897C225.732 133.789 224.23 133.167 222.664 133.167H148.448C145.328 133.168 142.301 132.111 139.861 130.168C137.42 128.226 135.71 125.513 135.011 122.474Z" fill="black"/>
<path opacity="0.22" d="M119.851 92.7422L123.678 105.138C124.167 106.715 125.262 108.034 126.722 108.805C128.182 109.576 129.889 109.736 131.468 109.25L143.857 105.422L119.851 92.7422Z" fill="#5F68FF"/>
<path d="M119.851 92.7422L75.5626 106.426C74.7808 106.666 74.054 107.058 73.4238 107.579C72.7936 108.101 72.2724 108.741 71.89 109.464C71.5076 110.187 71.2714 110.978 71.1951 111.793C71.1188 112.607 71.2038 113.428 71.4452 114.21L96.7297 196.065C96.971 196.847 97.364 197.573 97.8861 198.203C98.4081 198.832 99.0492 199.353 99.7725 199.735C100.496 200.117 101.287 200.352 102.102 200.428C102.916 200.504 103.738 200.419 104.519 200.177L161.203 182.666C161.984 182.425 162.71 182.033 163.34 181.511C163.969 180.99 164.49 180.349 164.872 179.626C165.254 178.903 165.489 178.112 165.565 177.298C165.641 176.484 165.556 175.663 165.315 174.882L143.842 105.422L119.851 92.7422Z" fill="#5F68FF"/>
<path opacity="0.8" d="M119.851 92.7422L75.5626 106.426C74.7808 106.666 74.054 107.058 73.4238 107.579C72.7936 108.101 72.2724 108.741 71.89 109.464C71.5076 110.187 71.2714 110.978 71.1951 111.793C71.1188 112.607 71.2038 113.428 71.4452 114.21L96.7297 196.065C96.971 196.847 97.364 197.573 97.8861 198.203C98.4081 198.832 99.0492 199.353 99.7725 199.735C100.496 200.117 101.287 200.352 102.102 200.428C102.916 200.504 103.738 200.419 104.519 200.177L161.203 182.666C161.984 182.425 162.71 182.033 163.34 181.511C163.969 180.99 164.49 180.349 164.872 179.626C165.254 178.903 165.489 178.112 165.565 177.298C165.641 176.484 165.556 175.663 165.315 174.882L143.842 105.422L119.851 92.7422Z" fill="white"/>
<g opacity="0.28">
<path opacity="0.28" d="M143.68 179.09L106.833 190.47C106.144 190.682 105.399 190.612 104.761 190.276C104.123 189.94 103.644 189.365 103.429 188.677C103.219 187.988 103.291 187.244 103.628 186.607C103.965 185.971 104.54 185.493 105.228 185.279L142.075 173.893C142.765 173.682 143.511 173.752 144.149 174.089C144.786 174.426 145.265 175.003 145.479 175.692C145.689 176.381 145.617 177.125 145.28 177.761C144.943 178.398 144.368 178.876 143.68 179.09Z" fill="#5F68FF"/>
</g>
<g opacity="0.28">
<path opacity="0.28" d="M104.025 112.298L84.5385 118.316C83.8494 118.526 83.1052 118.456 82.4678 118.12C81.8304 117.784 81.3514 117.21 81.135 116.523C80.9251 115.833 80.9963 115.089 81.3331 114.451C81.67 113.814 82.2452 113.335 82.9334 113.12L102.42 107.102C103.109 106.889 103.855 106.958 104.493 107.294C105.131 107.63 105.61 108.206 105.824 108.895C106.034 109.585 105.962 110.33 105.626 110.967C105.289 111.605 104.713 112.083 104.025 112.298Z" fill="#5F68FF"/>
</g>
<g opacity="0.28">
<path opacity="0.28" d="M119.926 118.684L87.7164 128.631C87.0287 128.838 86.2873 128.765 85.6532 128.428C85.019 128.091 84.5432 127.518 84.329 126.833C84.1175 126.144 84.1875 125.4 84.5235 124.763C84.8596 124.127 85.4344 123.649 86.122 123.435L118.332 113.487C119.021 113.276 119.766 113.346 120.403 113.682C121.041 114.018 121.52 114.592 121.735 115.28C121.943 115.972 121.87 116.717 121.531 117.354C121.192 117.992 120.615 118.47 119.926 118.684Z" fill="#5F68FF"/>
</g>
<g opacity="0.28">
<path opacity="0.28" d="M137.91 124.421L90.9052 138.915C90.2168 139.126 89.4726 139.057 88.8357 138.72C88.1988 138.384 87.721 137.81 87.5071 137.122C87.2969 136.433 87.3673 135.689 87.7031 135.051C88.0389 134.414 88.6129 133.935 89.3001 133.718L136.305 119.224C136.993 119.014 137.736 119.085 138.373 119.421C139.01 119.756 139.487 120.33 139.703 121.017C139.914 121.706 139.845 122.451 139.509 123.089C139.173 123.727 138.598 124.206 137.91 124.421Z" fill="#5F68FF"/>
</g>
<g opacity="0.28">
<path opacity="0.28" d="M141.093 134.728L113.769 143.172C113.08 143.382 112.336 143.31 111.699 142.973C111.062 142.636 110.585 142.061 110.371 141.374C110.161 140.685 110.231 139.942 110.567 139.305C110.903 138.669 111.477 138.191 112.164 137.975L139.488 129.531C140.178 129.323 140.922 129.395 141.559 129.731C142.196 130.068 142.675 130.642 142.892 131.33C143.101 132.019 143.03 132.763 142.693 133.399C142.356 134.036 141.781 134.514 141.093 134.728Z" fill="#5F68FF"/>
</g>
<g opacity="0.28">
<path opacity="0.28" d="M101.239 147.042L94.094 149.248C93.4049 149.46 92.66 149.39 92.0223 149.054C91.3845 148.718 90.9057 148.143 90.6905 147.455C90.4791 146.765 90.5496 146.02 90.8867 145.382C91.2238 144.744 91.7999 144.266 92.4889 144.052L99.6341 141.845C100.323 141.635 101.067 141.706 101.705 142.042C102.342 142.377 102.821 142.951 103.038 143.638C103.246 144.328 103.174 145.072 102.837 145.71C102.501 146.347 101.927 146.825 101.239 147.042Z" fill="#5F68FF"/>
</g>
<g opacity="0.28">
<path opacity="0.28" d="M144.282 145.042L97.2774 159.563C96.5883 159.773 95.8442 159.701 95.2075 159.364C94.5709 159.027 94.0934 158.452 93.8793 157.765C93.6678 157.076 93.7378 156.332 94.0738 155.695C94.4099 155.058 94.9847 154.58 95.6723 154.366L142.677 139.845C143.365 139.635 144.109 139.706 144.745 140.042C145.382 140.378 145.86 140.951 146.075 141.638C146.287 142.327 146.217 143.072 145.881 143.71C145.545 144.348 144.97 144.827 144.282 145.042Z" fill="#5F68FF"/>
</g>
<g opacity="0.28">
<path opacity="0.28" d="M129.326 160.952L100.461 169.868C99.7724 170.078 99.0289 170.008 98.3924 169.672C97.7559 169.336 97.2779 168.762 97.0627 168.075C96.8525 167.386 96.923 166.642 97.2588 166.005C97.5946 165.367 98.1685 164.888 98.8557 164.672L127.721 155.755C128.411 155.545 129.156 155.616 129.793 155.953C130.431 156.29 130.909 156.865 131.124 157.553C131.336 158.243 131.265 158.987 130.928 159.624C130.591 160.261 130.015 160.739 129.326 160.952Z" fill="#5F68FF"/>
</g>
<g opacity="0.28">
<path opacity="0.28" d="M147.465 155.352L139.762 157.73C139.072 157.94 138.327 157.869 137.69 157.532C137.052 157.195 136.574 156.62 136.358 155.931C136.149 155.242 136.22 154.498 136.557 153.862C136.894 153.225 137.469 152.747 138.157 152.533L145.86 150.155C146.549 149.944 147.293 150.014 147.93 150.35C148.567 150.686 149.044 151.261 149.258 151.948C149.47 152.637 149.4 153.382 149.064 154.02C148.728 154.658 148.153 155.137 147.465 155.352Z" fill="#5F68FF"/>
</g>
<g opacity="0.28">
<path opacity="0.28" d="M150.649 165.672L103.655 180.167C102.965 180.378 102.22 180.308 101.582 179.971C100.944 179.634 100.465 179.057 100.251 178.368C100.04 177.679 100.111 176.935 100.448 176.297C100.785 175.66 101.361 175.183 102.05 174.97L149.049 160.449C149.739 160.241 150.483 160.313 151.12 160.649C151.757 160.986 152.236 161.56 152.452 162.247C152.56 162.591 152.599 162.952 152.567 163.31C152.534 163.669 152.431 164.017 152.264 164.335C152.096 164.654 151.867 164.936 151.59 165.165C151.313 165.395 150.993 165.567 150.649 165.672Z" fill="#5F68FF"/>
</g>
<path d="M151.658 61.96L165.712 93.2785C166.077 94.096 166.103 95.0247 165.785 95.8617C165.467 96.6986 164.831 97.3757 164.015 97.7449L104.395 124.506C103.578 124.872 102.649 124.899 101.811 124.581C100.974 124.263 100.297 123.626 99.929 122.809L85.8696 91.4908C85.5016 90.6729 85.4735 89.7423 85.7917 88.9037C86.1098 88.065 86.748 87.3871 87.5659 87.0191L147.186 60.2583C148.005 59.8936 148.935 59.8678 149.773 60.1867C150.611 60.5056 151.288 61.1431 151.658 61.96Z" fill="#5F68FF"/>
<path opacity="0.3" d="M151.658 61.96L165.712 93.2785C166.077 94.096 166.103 95.0247 165.785 95.8617C165.467 96.6986 164.831 97.3757 164.015 97.7449L104.395 124.506C103.578 124.872 102.649 124.899 101.811 124.581C100.974 124.263 100.297 123.626 99.929 122.809L85.8696 91.4908C85.5016 90.6729 85.4735 89.7423 85.7917 88.9037C86.1098 88.065 86.748 87.3871 87.5659 87.0191L147.186 60.2583C148.005 59.8936 148.935 59.8678 149.773 60.1867C150.611 60.5056 151.288 61.1431 151.658 61.96Z" fill="black"/>
<path d="M142.261 60.4148L140.356 61.2695L140.576 61.7593L142.481 60.9046L142.261 60.4148Z" fill="#5F68FF"/>
<path d="M137.688 62.4638L131.747 65.1289L131.966 65.6187L137.908 62.9536L137.688 62.4638Z" fill="#5F68FF"/>
<path d="M85.8169 94.6473L85.3271 94.8672L86.9543 98.4912L87.444 98.2713L85.8169 94.6473Z" fill="#5F68FF"/>
<path opacity="0.6" d="M149.661 60.1467L134.286 90.2627C132.859 93.054 130.523 95.2751 127.663 96.5586C124.803 97.8422 121.591 98.1115 118.557 97.3219L85.8374 88.7918C86.1731 88.0067 86.7894 87.3751 87.566 87.0203L147.186 60.2595C147.967 59.9102 148.851 59.87 149.661 60.1467Z" fill="#5F68FF"/>
<path d="M170.796 98.6914L124.532 101.547C123.715 101.596 122.915 101.805 122.179 102.163C121.442 102.521 120.784 103.021 120.241 103.634C119.698 104.247 119.281 104.96 119.014 105.734C118.747 106.509 118.636 107.328 118.686 108.145L123.963 193.651C124.012 194.468 124.222 195.269 124.581 196.005C124.94 196.741 125.441 197.4 126.055 197.942C126.669 198.485 127.384 198.901 128.159 199.167C128.934 199.433 129.754 199.543 130.571 199.491L189.783 195.836C190.6 195.786 191.398 195.576 192.134 195.218C192.869 194.86 193.526 194.36 194.067 193.747C194.609 193.134 195.024 192.42 195.29 191.646C195.555 190.873 195.665 190.054 195.613 189.238L191.158 116.675L170.796 98.6914Z" fill="#5F68FF"/>
<path opacity="0.8" d="M170.796 98.6914L124.532 101.547C123.715 101.596 122.915 101.805 122.179 102.163C121.442 102.521 120.784 103.021 120.241 103.634C119.698 104.247 119.281 104.96 119.014 105.734C118.747 106.509 118.636 107.328 118.686 108.145L123.963 193.651C124.012 194.468 124.222 195.269 124.581 196.005C124.94 196.741 125.441 197.4 126.055 197.942C126.669 198.485 127.384 198.901 128.159 199.167C128.934 199.433 129.754 199.543 130.571 199.491L189.783 195.836C190.6 195.786 191.398 195.576 192.134 195.218C192.869 194.86 193.526 194.36 194.067 193.747C194.609 193.134 195.024 192.42 195.29 191.646C195.555 190.873 195.665 190.054 195.613 189.238L191.158 116.675L170.796 98.6914Z" fill="white"/>
<g opacity="0.22">
<path opacity="0.22" d="M173.593 188.217L135.097 190.596C134.378 190.637 133.671 190.392 133.132 189.914C132.593 189.436 132.265 188.764 132.219 188.046C132.178 187.327 132.422 186.621 132.899 186.081C133.375 185.541 134.045 185.211 134.764 185.163L173.26 182.79C173.979 182.747 174.686 182.991 175.226 183.468C175.766 183.945 176.096 184.616 176.142 185.335C176.185 186.055 175.941 186.762 175.463 187.303C174.985 187.843 174.312 188.172 173.593 188.217Z" fill="#5F68FF"/>
</g>
<g opacity="0.22">
<path opacity="0.22" d="M150.81 113.962L130.448 115.208C129.729 115.249 129.023 115.005 128.483 114.528C127.943 114.052 127.613 113.382 127.565 112.663C127.524 111.944 127.769 111.237 128.246 110.697C128.724 110.157 129.396 109.827 130.115 109.78L150.477 108.524C151.195 108.482 151.902 108.726 152.441 109.202C152.98 109.679 153.309 110.35 153.354 111.069C153.4 111.79 153.157 112.499 152.68 113.042C152.203 113.584 151.53 113.915 150.81 113.962Z" fill="#5F68FF"/>
</g>
<g opacity="0.22">
<path opacity="0.22" d="M164.757 123.917L131.114 125.989C130.394 126.033 129.686 125.79 129.146 125.313C128.606 124.836 128.276 124.164 128.231 123.444C128.188 122.724 128.433 122.017 128.911 121.476C129.388 120.936 130.061 120.607 130.781 120.562L164.418 118.489C165.138 118.445 165.845 118.689 166.386 119.166C166.926 119.643 167.255 120.315 167.301 121.034C167.344 121.753 167.1 122.46 166.623 123C166.147 123.54 165.475 123.87 164.757 123.917Z" fill="#5F68FF"/>
</g>
<g opacity="0.22">
<path opacity="0.22" d="M180.877 133.734L131.779 136.762C131.058 136.806 130.348 136.562 129.806 136.084C129.263 135.606 128.933 134.933 128.886 134.212C128.843 133.493 129.087 132.787 129.564 132.248C130.041 131.708 130.712 131.38 131.43 131.334L180.534 128.301C181.253 128.26 181.959 128.505 182.498 128.983C183.037 129.461 183.365 130.132 183.411 130.851C183.454 131.569 183.212 132.274 182.737 132.814C182.263 133.354 181.594 133.684 180.877 133.734Z" fill="#5F68FF"/>
</g>
<g opacity="0.22">
<path opacity="0.22" d="M181.543 144.503L153 146.264C152.28 146.306 151.574 146.063 151.034 145.586C150.493 145.109 150.164 144.438 150.117 143.719C150.073 142.999 150.316 142.292 150.793 141.751C151.27 141.211 151.942 140.882 152.661 140.836L181.205 139.075C181.924 139.031 182.632 139.274 183.172 139.752C183.713 140.229 184.042 140.901 184.087 141.62C184.13 142.339 183.886 143.046 183.41 143.586C182.933 144.126 182.262 144.456 181.543 144.503Z" fill="#5F68FF"/>
</g>
<g opacity="0.22">
<path opacity="0.22" d="M139.907 147.069L132.439 147.53C131.721 147.573 131.014 147.329 130.475 146.852C129.936 146.375 129.608 145.704 129.562 144.986C129.519 144.266 129.763 143.56 130.24 143.019C130.716 142.479 131.388 142.15 132.106 142.103L139.574 141.641C140.293 141.6 141 141.845 141.54 142.323C142.08 142.8 142.41 143.472 142.456 144.191C142.498 144.91 142.253 145.616 141.775 146.156C141.297 146.695 140.625 147.023 139.907 147.069Z" fill="#5F68FF"/>
</g>
<g opacity="0.22">
<path opacity="0.22" d="M182.208 155.272L133.105 158.3C132.386 158.342 131.679 158.099 131.139 157.622C130.599 157.145 130.269 156.474 130.222 155.755C130.181 155.035 130.426 154.329 130.904 153.789C131.381 153.249 132.053 152.919 132.772 152.872L181.87 149.845C182.59 149.802 183.298 150.046 183.838 150.524C184.379 151.002 184.707 151.675 184.753 152.395C184.796 153.113 184.552 153.819 184.075 154.359C183.598 154.898 182.927 155.226 182.208 155.272Z" fill="#5F68FF"/>
</g>
<g opacity="0.22">
<path opacity="0.22" d="M163.924 167.213L133.771 169.076C133.051 169.117 132.344 168.872 131.804 168.394C131.264 167.917 130.935 167.245 130.888 166.526C130.847 165.807 131.092 165.101 131.569 164.561C132.047 164.022 132.719 163.694 133.438 163.648L163.591 161.786C164.31 161.745 165.017 161.99 165.556 162.467C166.095 162.945 166.423 163.617 166.469 164.336C166.513 165.055 166.269 165.762 165.792 166.301C165.315 166.841 164.643 167.169 163.924 167.213Z" fill="#5F68FF"/>
</g>
<g opacity="0.22">
<path opacity="0.22" d="M182.869 166.046L174.817 166.54C174.098 166.582 173.392 166.338 172.852 165.861C172.313 165.385 171.985 164.713 171.939 163.995C171.895 163.275 172.138 162.568 172.615 162.027C173.092 161.487 173.764 161.158 174.484 161.112L182.536 160.618C183.256 160.574 183.963 160.817 184.504 161.294C185.044 161.772 185.373 162.443 185.419 163.163C185.46 163.883 185.215 164.589 184.738 165.129C184.26 165.669 183.588 165.999 182.869 166.046Z" fill="#5F68FF"/>
</g>
<g opacity="0.22">
<path opacity="0.22" d="M183.534 176.815L134.436 179.843C133.717 179.885 133.01 179.642 132.47 179.165C131.93 178.688 131.601 178.017 131.554 177.298C131.511 176.579 131.755 175.872 132.231 175.332C132.708 174.792 133.379 174.462 134.098 174.415L183.202 171.388C183.92 171.345 184.627 171.589 185.166 172.066C185.705 172.543 186.033 173.214 186.079 173.932C186.123 174.652 185.88 175.359 185.403 175.9C184.926 176.44 184.254 176.769 183.534 176.815Z" fill="#5F68FF"/>
</g>
<path opacity="0.22" d="M170.795 98.6914L171.595 111.64C171.645 112.456 171.855 113.255 172.214 113.99C172.573 114.725 173.073 115.382 173.685 115.924C174.298 116.466 175.011 116.882 175.785 117.148C176.558 117.414 177.376 117.525 178.193 117.475L191.157 116.675L170.795 98.6914Z" fill="#5F68FF"/>
<path opacity="0.5" d="M155.647 130.993C155.638 130.373 155.506 129.76 155.257 129.192C155.008 128.623 154.648 128.11 154.198 127.683C153.747 127.257 153.216 126.924 152.635 126.706C152.054 126.488 151.435 126.389 150.815 126.414H107.815C104.557 126.414 101.373 129.061 100.761 132.319L83.7923 219.258C83.1589 222.517 85.2847 225.163 88.5432 225.163H224.897C228.156 225.163 231.312 222.522 231.951 219.258L245.946 147.592C246.58 144.328 244.454 141.687 241.195 141.687H167C160.558 141.687 155.867 137.252 155.647 130.993Z" fill="#5F68FF"/>
</svg>
