<svg xmlns="http://www.w3.org/2000/svg" width="64" height="64" viewBox="0 0 64 64">
  <path fill="#757ffc" d="M30.85 45.65l-4.98-9.11c-.07-.13-.18-.24-.32-.32l-9.11-4.98c-1.28-.7-1.28-2.53 0-3.23l9.11-4.98c.13-.07.24-.18.31-.31h0s4.98-9.11 4.98-9.11c.7-1.28 2.53-1.28 3.23 0l4.98 9.11c.07.13.18.24.32.32l9.11 4.98c1.28.7 1.28 2.53 0 3.23l-9.11 4.98c-.13.07-.24.18-.31.31l-4.98 9.11c-.7 1.28-2.53 1.28-3.23 0zM27.13 109.45l-3.78-6.91c-.06-.1-.14-.18-.24-.24l-6.91-3.78c-.97-.53-.97-1.92 0-2.45l6.91-3.78c.1-.06.18-.14.24-.24h0s3.78-6.91 3.78-6.91c.53-.97 1.92-.97 2.45 0l3.78 6.91c.06.1.14.18.24.24l6.91 3.78c.97.53.97 1.92 0 2.45l-6.91 3.78c-.1.05-.18.14-.24.24l-3.78 6.91c-.53.97-1.92.97-2.45 0zM76.94 43.17l.11.27c3.68 9.32 11.13 16.78 20.45 20.45l.27.11-.27.11c-9.32 3.68-16.78 11.13-20.45 20.45l-.11.27-.11-.27c-3.68-9.32-11.13-16.78-20.45-20.45l-.27-.11.27-.11c9.32-3.68 16.78-11.13 20.45-20.45l.11-.27m0-23.65c-.8 0-1.6.44-1.94 1.32l-7.46 18.92c-2.67 6.78-8.04 12.15-14.82 14.82l-18.92 7.46c-1.76.7-1.76 3.19 0 3.89l18.92 7.46c6.78 2.67 12.15 8.04 14.82 14.82l7.46 18.92c.35.88 1.15 1.32 1.94 1.32s1.6-.44 1.94-1.32l7.46-18.92c2.67-6.78 8.04-12.15 14.82-14.82l18.92-7.46c1.76-.7 1.76-3.19 0-3.89l-18.92-7.46c-6.78-2.67-12.15-8.04-14.82-14.82l-7.46-18.92c-.35-.88-1.15-1.32-1.94-1.32h0z"/>
</svg>
